# xmcd CD database file
#
# Track frame offsets:
#	150
#	16902
#	32825
#
# Disc length: 658 seconds
#
# Revision: 0
# Processed by: cddbd v1.5PL3 Copyright (c) Steve Scherf et al.
# Submitted via: CDex 1.51
#
DISCID=19029003
DTITLE=PAMELAH - 許されない恋
DYEAR=1999
DGENRE=JPop
TTITLE0=許されない恋
TTITLE1=FIND OUT
TTITLE2=許されない恋 (オリジナル･カラオケ)
EXTD=YEAR: 1999
EXTT0=
EXTT1=
EXTT2=
PLAYORDER=
